<?xml version="1.0" encoding="UTF-8"?>
<svg version="1.1" xmlns="http://www.w3.org/2000/svg" width="200" height="200">
<path d="M0 0 C23 0 23 0 31 2 C31 2.66 31 3.32 31 4 C31.928125 4.37125 31.928125 4.37125 32.875 4.75 C35.46118611 6.27128595 35.90532123 7.23701166 37 10 C37.63272906 14.40912251 38.02376136 19.00195274 35.94921875 23.05078125 C34.625 24.6875 34.625 24.6875 32 27 C31.34 27 30.68 27 30 27 C30.27263672 27.57032959 30.54527344 28.14065918 30.82617188 28.72827148 C32.05277749 31.29706671 33.2764259 33.86725951 34.5 36.4375 C34.92925781 37.33533203 35.35851563 38.23316406 35.80078125 39.15820312 C36.20683594 40.01220703 36.61289062 40.86621094 37.03125 41.74609375 C37.40830078 42.53685303 37.78535156 43.3276123 38.17382812 44.14233398 C39 46 39 46 39 47 C34.38 47 29.76 47 25 47 C24.55269531 46.00097656 24.10539062 45.00195312 23.64453125 43.97265625 C23.03482251 42.66881757 22.4240918 41.36545645 21.8125 40.0625 C21.37454102 39.0734668 21.37454102 39.0734668 20.92773438 38.06445312 C19.93981122 35.89227139 19.93981122 35.89227139 18 33 C16.35 32.67 14.7 32.34 13 32 C13 36.95 13 41.9 13 47 C8.71 47 4.42 47 0 47 C0 31.49 0 15.98 0 0 Z M13 12 C13 14.97 13 17.94 13 21 C14.64574566 21.02688151 16.29161413 21.04634123 17.9375 21.0625 C19.31228516 21.07990234 19.31228516 21.07990234 20.71484375 21.09765625 C22.96593327 21.25949049 22.96593327 21.25949049 24 20 C24.07148199 18.64756083 24.08399454 17.29165633 24.0625 15.9375 C24.041875 14.638125 24.02125 13.33875 24 12 C20.18243176 10.62567543 16.92744671 11.32024961 13 12 Z " fill="#8E1775" transform="translate(11,97)"/>
<path d="M0 0 C1.40765625 -0.00386719 1.40765625 -0.00386719 2.84375 -0.0078125 C5.2214263 0.11107132 7.22683096 0.44948278 9.5 1.125 C9.5 1.785 9.5 2.445 9.5 3.125 C10.82 3.455 12.14 3.785 13.5 4.125 C14.16 2.805 14.82 1.485 15.5 0.125 C17.81 0.125 20.12 0.125 22.5 0.125 C22.5 15.305 22.5 30.485 22.5 46.125 C19.86 46.125 17.22 46.125 14.5 46.125 C14.17 45.135 13.84 44.145 13.5 43.125 C12.613125 43.62 11.72625 44.115 10.8125 44.625 C4.42379258 47.31498207 -2.90737805 47.27824588 -9.45703125 45.17578125 C-14.08049303 43.02989928 -17.61372637 41.11015174 -19.5 36.125 C-19.5 35.465 -19.5 34.805 -19.5 34.125 C-20.16 34.125 -20.82 34.125 -21.5 34.125 C-23.64402348 26.62977741 -24.53210187 19.60983341 -20.875 12.4375 C-18.46965194 8.65261407 -15.21355198 5.62204358 -11.5 3.125 C-10.84 3.125 -10.18 3.125 -9.5 3.125 C-9.5 2.465 -9.5 1.805 -9.5 1.125 C-6.27599427 0.16692283 -3.35714324 -0.00922292 0 0 Z M-9.5 13.125 C-11.7773501 15.94009993 -11.7773501 15.94009993 -11.5 19.125 C-12.16 19.125 -12.82 19.125 -13.5 19.125 C-13.92034404 25.21998863 -13.57814737 28.25387953 -9.5 33.125 C-6.60601417 36.12234246 -3.65943325 36.8263749 0.48046875 37.1796875 C4.54310468 37.06967415 7.18479835 35.47143335 9.98046875 32.609375 C12.4513956 29.5362895 13.44352526 27.52738254 14 23.5625 C13.33214149 18.97097275 11.97957908 15.77529975 8.875 12.3125 C2.44391902 9.09695951 -3.39021125 9.63369214 -9.5 13.125 Z " fill="#F26214" transform="translate(72.5,97.875)"/>
<path d="M0 0 C10.56 0 21.12 0 32 0 C32 3.63 32 7.26 32 11 C25.4 11 18.8 11 12 11 C12 12.98 12 14.96 12 17 C17.61 17 23.22 17 29 17 C29 20.63 29 24.26 29 28 C23.39 28 17.78 28 12 28 C12 30.64 12 33.28 12 36 C18.6 36 25.2 36 32 36 C32 39.3 32 42.6 32 46 C21.44 46 10.88 46 0 46 C0 30.82 0 15.64 0 0 Z " fill="#901774" transform="translate(157,98)"/>
<path d="M0 0 C2.78497472 3.19452983 2.4609375 6.57001756 2.4609375 10.67578125 C-1.4990625 10.67578125 -5.4590625 10.67578125 -9.5390625 10.67578125 C-9.5390625 9.68578125 -9.5390625 8.69578125 -9.5390625 7.67578125 C-10.5290625 7.67578125 -11.5190625 7.67578125 -12.5390625 7.67578125 C-12.5390625 7.01578125 -12.5390625 6.35578125 -12.5390625 5.67578125 C-14.1890625 5.67578125 -15.8390625 5.67578125 -17.5390625 5.67578125 C-17.5390625 6.33578125 -17.5390625 6.99578125 -17.5390625 7.67578125 C-18.5290625 7.67578125 -19.5190625 7.67578125 -20.5390625 7.67578125 C-19.99300331 9.65230912 -19.99300331 9.65230912 -18.5390625 11.67578125 C-15.49217339 13.17841686 -15.49217339 13.17841686 -11.9765625 14.30078125 C-5.63628472 16.48133681 -5.63628472 16.48133681 -4.5390625 18.67578125 C-3.9203125 18.96453125 -3.3015625 19.25328125 -2.6640625 19.55078125 C-0.05664269 20.93117998 0.91808377 22.16486244 2.4609375 24.67578125 C3.27449455 29.59377027 3.18683771 34.16085908 1.0234375 38.67578125 C-4.03687583 42.62529409 -10.09975784 44.24572078 -16.49609375 43.96484375 C-22.33830099 43.13822169 -28.72095067 41.32910504 -32.5390625 36.67578125 C-33.2492065 33.28524412 -33.40143668 30.16230211 -33.5390625 26.67578125 C-29.5790625 26.67578125 -25.6190625 26.67578125 -21.5390625 26.67578125 C-20.8790625 28.32578125 -20.2190625 29.97578125 -19.5390625 31.67578125 C-18.35481924 33.09155602 -18.35481924 33.09155602 -14.9765625 32.73828125 C-13.275 32.70734375 -13.275 32.70734375 -11.5390625 32.67578125 C-11.2090625 31.02578125 -10.8790625 29.37578125 -10.5390625 27.67578125 C-11.33570313 27.36125 -12.13234375 27.04671875 -12.953125 26.72265625 C-28.55257209 20.42214964 -28.55257209 20.42214964 -32.5390625 13.67578125 C-33.26518799 9.21010946 -33.07924215 4.48605073 -30.5390625 0.67578125 C-21.38179702 -5.41534365 -9.29681886 -6.4318808 0 0 Z " fill="#8E1775" transform="translate(150.5390625,101.32421875)"/>
<path d="M0 0 C2.3406709 2.1110955 4.37476436 4.29127394 6 7 C6 7.99 6 8.98 6 10 C6.66 10 7.32 10 8 10 C8 11.65 8 13.3 8 15 C3.71 15 -0.58 15 -5 15 C-5.66 13.02 -6.32 11.04 -7 9 C-10.38477228 8.13412802 -12.3599117 7.7441535 -15.6484375 9.05859375 C-18.28866824 10.84702406 -18.28866824 10.84702406 -18.77734375 14.109375 C-19.27073974 23.26341642 -19.27073974 23.26341642 -17 32 C-15.96593327 33.25949049 -15.96593327 33.25949049 -13.71484375 33.09765625 C-12.79832031 33.08605469 -11.88179687 33.07445312 -10.9375 33.0625 C-10.01839844 33.05347656 -9.09929687 33.04445312 -8.15234375 33.03515625 C-7.44207031 33.02355469 -6.73179687 33.01195312 -6 33 C-5.67 31.35 -5.34 29.7 -5 28 C-0.71 28 3.58 28 8 28 C5.94117647 38.29411765 5.94117647 38.29411765 2.5 40.875 C0 42 0 42 -2 42 C-2 42.66 -2 43.32 -2 44 C-8.92370561 46.0063945 -16.48682773 46.23189062 -23 42.9375 C-27.67483488 39.95644587 -29.82148809 36.53553572 -31.578125 31.265625 C-33.13219162 22.91971167 -33.42412161 11.48952422 -29 4 C-21.95753004 -4.39279606 -9.1796915 -5.52321061 0 0 Z " fill="#8E1775" transform="translate(149,49)"/>
<path d="M0 0 C5.71852081 1.32751376 9.04861482 2.73088354 12.3125 7.6875 C14.03948479 10.68758255 15.17248026 13.3189561 15.5 16.8125 C16.16 16.8125 16.82 16.8125 17.5 16.8125 C17.94730469 17.91207031 18.39460938 19.01164062 18.85546875 20.14453125 C21.97195436 27.77460733 25.11582677 35.36030237 28.65234375 42.80859375 C29.5 44.8125 29.5 44.8125 29.5 46.8125 C22.57 46.8125 15.64 46.8125 8.5 46.8125 C7.345 44.564375 6.19 42.31625 5 40 C4.63455078 39.29641357 4.26910156 38.59282715 3.89257812 37.86791992 C2.43296765 34.9871751 1.5 33.08337277 1.5 29.8125 C0.84 29.8125 0.18 29.8125 -0.5 29.8125 C-0.6959375 29.17441406 -0.891875 28.53632812 -1.09375 27.87890625 C-2.03412454 25.28071625 -2.93297555 23.09415647 -4.5 20.8125 C-7.37282756 19.66117598 -9.33840709 19.75980678 -12.5 19.8125 C-7.52543544 1.74697609 -7.52543544 1.74697609 0 0 Z " fill="#B6CE20" transform="translate(67.5,47.1875)"/>
<path d="M0 0 C3.96 0 7.92 0 12 0 C12 15.51 12 31.02 12 47 C8.04 47 4.08 47 0 47 C0 31.49 0 15.98 0 0 Z " fill="#8E1876" transform="translate(101,47)"/>
<path d="M0 0 C3.96 0 7.92 0 12 0 C12 15.18 12 30.36 12 46 C8.04 46 4.08 46 0 46 C0 30.82 0 15.64 0 0 Z " fill="#8E1876" transform="translate(101,98)"/>
<path d="M0 0 C4.26465963 0.27964981 6.30929543 0.81298813 9.8125 3.25 C12.96138053 7.17124746 15.33524256 11.15925393 15.8125 16.25 C16.4725 16.25 17.1325 16.25 17.8125 16.25 C18.25980469 17.34957031 18.70710938 18.44914062 19.16796875 19.58203125 C22.28445436 27.21210733 25.42832677 34.79780237 28.96484375 42.24609375 C29.8125 44.25 29.8125 44.25 29.8125 46.25 C27.1725 46.25 24.5325 46.25 21.8125 46.25 C21.50546143 45.54504395 21.19842285 44.84008789 20.88208008 44.11376953 C19.46580299 40.86630602 18.04542775 37.62065005 16.625 34.375 C16.14224609 33.26640625 15.65949219 32.1578125 15.16210938 31.015625 C12.9009049 25.85582956 10.61456786 20.70690439 8.19921875 15.6171875 C7.83401123 14.8422998 7.46880371 14.06741211 7.0925293 13.26904297 C5.21031823 10.30015387 3.10383718 8.55869557 -0.328125 7.73828125 C-2.28125 7.57552083 -4.234375 7.41276042 -6.1875 7.25 C-3.97312259 0.31161746 -3.97312259 0.31161746 0 0 Z " fill="#F16712" transform="translate(67.1875,47.75)"/>
<path d="M0 0 C1.21816406 0.03480469 1.21816406 0.03480469 2.4609375 0.0703125 C3.68683594 0.09738281 3.68683594 0.09738281 4.9375 0.125 C5.87722656 0.15980469 5.87722656 0.15980469 6.8359375 0.1953125 C10.8359375 6.8203125 10.8359375 6.8203125 10.8359375 10.1953125 C11.4959375 10.1953125 12.1559375 10.1953125 12.8359375 10.1953125 C13.4959375 12.1753125 14.1559375 14.1553125 14.8359375 16.1953125 C13.4128125 16.3190625 13.4128125 16.3190625 11.9609375 16.4453125 C10.9296875 16.6928125 9.8984375 16.9403125 8.8359375 17.1953125 C8.1759375 18.5153125 7.5159375 19.8353125 6.8359375 21.1953125 C-0.0940625 21.1953125 -7.0240625 21.1953125 -14.1640625 21.1953125 C-13.8340625 19.8753125 -13.5040625 18.5553125 -13.1640625 17.1953125 C-12.5040625 17.1953125 -11.8440625 17.1953125 -11.1640625 17.1953125 C-10.99390625 16.61523438 -10.82375 16.03515625 -10.6484375 15.4375 C-6.02802592 0.54404566 -6.02802592 0.54404566 0 0 Z " fill="#B5CE23" transform="translate(56.1640625,71.8046875)"/>
<path d="M0 0 C1.7687398 -0.13513292 3.54043055 -0.23205586 5.3125 -0.3125 C6.29863281 -0.37050781 7.28476563 -0.42851563 8.30078125 -0.48828125 C9.19152344 -0.32714844 10.08226563 -0.16601562 11 0 C14.85365738 5.5715986 17.36518202 12.05419415 20.1875 18.1875 C20.75178157 19.40047045 21.31623311 20.61336184 21.88085938 21.82617188 C22.40873047 22.97021484 22.93660156 24.11425781 23.48046875 25.29296875 C23.96410889 26.3399292 24.44774902 27.38688965 24.94604492 28.46557617 C26 31 26 31 26 33 C23.69 33 21.38 33 19 33 C17.82592979 30.73272667 16.66060261 28.46165376 15.5 26.1875 C15.16613281 25.54490234 14.83226563 24.90230469 14.48828125 24.24023438 C12.99760916 21.30452301 12 19.33873483 12 16 C11.34 16 10.68 16 10 16 C9.70609375 15.04287109 9.70609375 15.04287109 9.40625 14.06640625 C8.46587546 11.46821625 7.56702445 9.28165647 6 7 C3.12717244 5.84867598 1.16159291 5.94730678 -2 6 C-1.34 4.02 -0.68 2.04 0 0 Z " fill="#1D95D7" transform="translate(57,61)"/>
<path d="M0 0 C1.21816406 0.03480469 1.21816406 0.03480469 2.4609375 0.0703125 C3.68683594 0.09738281 3.68683594 0.09738281 4.9375 0.125 C5.87722656 0.15980469 5.87722656 0.15980469 6.8359375 0.1953125 C7.8259375 2.1753125 8.8159375 4.1553125 9.8359375 6.1953125 C9.24425781 6.1746875 8.65257813 6.1540625 8.04296875 6.1328125 C3.14925671 6.21261947 3.14925671 6.21261947 -0.76953125 8.83203125 C-2.05325195 10.90573391 -3.13693954 12.9839772 -4.1640625 15.1953125 C-4.7621875 16.3503125 -5.3603125 17.5053125 -5.9765625 18.6953125 C-6.3684375 19.5203125 -6.7603125 20.3453125 -7.1640625 21.1953125 C-9.4740625 21.1953125 -11.7840625 21.1953125 -14.1640625 21.1953125 C-13.8340625 19.8753125 -13.5040625 18.5553125 -13.1640625 17.1953125 C-12.5040625 17.1953125 -11.8440625 17.1953125 -11.1640625 17.1953125 C-10.99390625 16.61523438 -10.82375 16.03515625 -10.6484375 15.4375 C-6.02802592 0.54404566 -6.02802592 0.54404566 0 0 Z " fill="#EE6714" transform="translate(56.1640625,71.8046875)"/>
<path d="M0 0 C2.31 0 4.62 0 7 0 C7 0.66 7 1.32 7 2 C7.66 2 8.32 2 9 2 C10.31372549 7.25490196 10.31372549 7.25490196 9 10.375 C7 12 7 12 3.5 12.5 C0 12 0 12 -2 10.375 C-3.31794101 7.2448901 -2.81054223 5.24216891 -2 2 C-1.34 2 -0.68 2 0 2 C0 1.34 0 0.68 0 0 Z " fill="#F06114" transform="translate(69,115)"/>
<path d="M0 0 C2.28947792 -0.00358852 4.52601703 0.09362484 6.8046875 0.30859375 C7.4646875 2.28859375 8.1246875 4.26859375 8.8046875 6.30859375 C7.8559375 6.39109375 6.9071875 6.47359375 5.9296875 6.55859375 C2.70006959 6.95934298 2.70006959 6.95934298 1.4296875 9.37109375 C1.2234375 10.01046875 1.0171875 10.64984375 0.8046875 11.30859375 C-1.8353125 11.30859375 -4.4753125 11.30859375 -7.1953125 11.30859375 C-3.9440484 0.5544125 -3.9440484 0.5544125 0 0 Z " fill="#1B98D9" transform="translate(62.1953125,81.69140625)"/>
<path d="M0 0 C1.32 0 2.64 0 4 0 C4.66 0.66 5.32 1.32 6 2 C8.58064129 2.14497985 11.04943884 2.18677545 13.625 2.125 C14.33140625 2.11597656 15.0378125 2.10695312 15.765625 2.09765625 C17.51056098 2.07407603 19.25532295 2.03820461 21 2 C21.33 1.34 21.66 0.68 22 0 C22 0.66 22 1.32 22 2 C24.31 2 26.62 2 29 2 C29.33 1.34 29.66 0.68 30 0 C30 1.65 30 3.3 30 5 C29.14341797 4.98259766 29.14341797 4.98259766 28.26953125 4.96484375 C23.26208611 4.90911702 18.36368479 5.10845401 13.375 5.5625 C8.35696516 5.9900722 3.95132517 5.87376327 -1 5 C-0.67 3.35 -0.34 1.7 0 0 Z " fill="#000000" transform="translate(12,147)"/>
<path d="M0 0 C0.66 0 1.32 0 2 0 C2 0.66 2 1.32 2 2 C7.61 2 13.22 2 19 2 C19.33 1.34 19.66 0.68 20 0 C20.99 0 21.98 0 23 0 C23 0.66 23 1.32 23 2 C25.31 2 27.62 2 30 2 C30 2.99 30 3.98 30 5 C20.1 5 10.2 5 0 5 C0 3.35 0 1.7 0 0 Z " fill="#000000" transform="translate(64,147)"/>
<path d="M0 0 C2.31 0 4.62 0 7 0 C7 0.33 7 0.66 7 1 C8.65 1.33 10.3 1.66 12 2 C12 1.34 12 0.68 12 0 C12.66 0 13.32 0 14 0 C14 0.66 14 1.32 14 2 C15.98 2 17.96 2 20 2 C20 2.66 20 3.32 20 4 C20.66 4 21.32 4 22 4 C22 4.66 22 5.32 22 6 C21.49597656 5.83628906 20.99195312 5.67257813 20.47265625 5.50390625 C17.10027257 4.81664323 13.8762607 4.90724697 10.4375 4.9375 C9.42913086 4.94426758 9.42913086 4.94426758 8.40039062 4.95117188 C6.60023033 4.9636854 4.80010943 4.98156885 3 5 C2.01 5 1.02 5 0 5 C0 3.35 0 1.7 0 0 Z " fill="#000000" transform="translate(95,147)"/>
<path d="M0 0 C0.66 0 1.32 0 2 0 C2.33 0.66 2.66 1.32 3 2 C9.435 1.505 9.435 1.505 16 1 C16.66 2.65 17.32 4.3 18 6 C16.35 6.33 14.7 6.66 13 7 C13 6.34 13 5.68 13 5 C12.01 5.185625 11.02 5.37125 10 5.5625 C5.82912322 6.17661683 2.14965731 5.65520905 -2 5 C-1.34 3.35 -0.68 1.7 0 0 Z M6 3 C7 5 7 5 7 5 Z " fill="#000000" transform="translate(132,147)"/>
<path d="M0 0 C1.32 0 2.64 0 4 0 C4 0.66 4 1.32 4 2 C6.97 1.34 9.94 0.68 13 0 C13.66 1.65 14.32 3.3 15 5 C10.05 5 5.1 5 0 5 C0 3.35 0 1.7 0 0 Z " fill="#000000" transform="translate(151,147)"/>
<path d="M0 0 C0.66 0 1.32 0 2 0 C2 0.66 2 1.32 2 2 C3.65 2 5.3 2 7 2 C7 1.34 7 0.68 7 0 C7.99 0 8.98 0 10 0 C10 0.66 10 1.32 10 2 C10.99 2 11.98 2 13 2 C13 2.99 13 3.98 13 5 C8.71 5 4.42 5 0 5 C0 3.35 0 1.7 0 0 Z " fill="#000000" transform="translate(174,147)"/>
<path d="M0 0 C3.63 0 7.26 0 11 0 C11 1.65 11 3.3 11 5 C7.37 5 3.74 5 0 5 C0 3.35 0 1.7 0 0 Z " fill="#000000" transform="translate(118,147)"/>
<path d="M0 0 C1.32 0 2.64 0 4 0 C4 0.66 4 1.32 4 2 C5.98 1.34 7.96 0.68 10 0 C10 1.65 10 3.3 10 5 C6.04 5 2.08 5 -2 5 C-2 4.01 -2 3.02 -2 2 C-1.34 2 -0.68 2 0 2 C0 1.34 0 0.68 0 0 Z " fill="#000000" transform="translate(53,147)"/>
<path d="M0 0 C0.66 0 1.32 0 2 0 C2 0.66 2 1.32 2 2 C3.32 1.67 4.64 1.34 6 1 C6.33 2.32 6.66 3.64 7 5 C3.86650268 6.04449911 3.01031744 5.93423645 0 5 C0 3.35 0 1.7 0 0 Z " fill="#000000" transform="translate(43,147)"/>
<path d="M0 0 C0 1.65 0 3.3 0 5 C-1.98 5 -3.96 5 -6 5 C-6 4.01 -6 3.02 -6 2 C-2.25 0 -2.25 0 0 0 Z " fill="#000000" transform="translate(173,147)"/>
<path d="" fill="#000000" transform="translate(0,0)"/>
<path d="" fill="#000000" transform="translate(0,0)"/>
<path d="" fill="#000000" transform="translate(0,0)"/>
<path d="" fill="#000000" transform="translate(0,0)"/>
<path d="" fill="#000000" transform="translate(0,0)"/>
<path d="" fill="#000000" transform="translate(0,0)"/>
<path d="" fill="#000000" transform="translate(0,0)"/>
<path d="" fill="#000000" transform="translate(0,0)"/>
<path d="" fill="#000000" transform="translate(0,0)"/>
<path d="" fill="#FF0000" transform="translate(0,0)"/>
<path d="" fill="#800080" transform="translate(0,0)"/>
<path d="" fill="#FF0000" transform="translate(0,0)"/>
</svg>
